<svg xmlns="http://www.w3.org/2000/svg" width="1024" height="1024" viewBox="0 0 1024 1024" fill="none">
<g filter="url(#filter0_d_35_294)">
<rect width="492" height="536" rx="67" transform="matrix(-0.990441 -0.137934 -0.137934 0.990441 853.018 301.4)" fill="#344859"/>
</g>
<g filter="url(#filter1_d_35_294)">
<rect width="492" height="568" rx="67" transform="matrix(0.990268 -0.139173 -0.139173 -0.990268 250 826.945)" fill="url(#paint0_linear_35_294)"/>
</g>
<rect width="368" height="330" rx="32" transform="matrix(0.990268 -0.139173 -0.139173 -0.990268 308.754 765.979)" fill="#F0EDE5"/>
<path d="M432.864 223.481C431.942 216.918 436.515 210.85 443.078 209.928L565.871 192.67C572.434 191.748 578.502 196.32 579.424 202.883L596.04 321.11C597.178 329.21 590.056 336.051 582.009 334.587L527.404 324.653C524.045 324.042 520.579 324.521 517.512 326.021L466.645 350.894C459.317 354.478 450.626 349.862 449.491 341.784L432.864 223.481Z" fill="url(#paint1_linear_35_294)"/>
<path d="M499.764 580.959V580.959C499.345 612.594 454.764 618.802 445.299 588.613V588.613" stroke="#131E28" stroke-width="16" stroke-linecap="round"/>
<rect width="60" height="60" rx="30" transform="matrix(0.990268 -0.139173 -0.139173 -0.990268 360.553 593.092)" fill="#344859"/>
<rect width="60" height="60" rx="30" transform="matrix(0.990268 -0.139173 -0.139173 -0.990268 524.938 569.988)" fill="#344859"/>
<defs>
<filter id="filter0_d_35_294" x="284.381" y="226.129" width="608.044" height="645.555" filterUnits="userSpaceOnUse" color-interpolation-filters="sRGB">
<feFlood flood-opacity="0" result="BackgroundImageFix"/>
<feColorMatrix in="SourceAlpha" type="matrix" values="0 0 0 0 0 0 0 0 0 0 0 0 0 0 0 0 0 0 127 0" result="hardAlpha"/>
<feOffset dx="16" dy="16"/>
<feGaussianBlur stdDeviation="16"/>
<feComposite in2="hardAlpha" operator="out"/>
<feColorMatrix type="matrix" values="0 0 0 0 0 0 0 0 0 0 0 0 0 0 0 0 0 0 0.25 0"/>
<feBlend mode="normal" in2="BackgroundImageFix" result="effect1_dropShadow_35_294"/>
<feBlend mode="normal" in="SourceGraphic" in2="effect1_dropShadow_35_294" result="shape"/>
</filter>
<filter id="filter1_d_35_294" x="163.614" y="188.664" width="612.934" height="677.617" filterUnits="userSpaceOnUse" color-interpolation-filters="sRGB">
<feFlood flood-opacity="0" result="BackgroundImageFix"/>
<feColorMatrix in="SourceAlpha" type="matrix" values="0 0 0 0 0 0 0 0 0 0 0 0 0 0 0 0 0 0 127 0" result="hardAlpha"/>
<feOffset dx="16" dy="16"/>
<feGaussianBlur stdDeviation="16"/>
<feComposite in2="hardAlpha" operator="out"/>
<feColorMatrix type="matrix" values="0 0 0 0 0 0 0 0 0 0 0 0 0 0 0 0 0 0 0.25 0"/>
<feBlend mode="normal" in2="BackgroundImageFix" result="effect1_dropShadow_35_294"/>
<feBlend mode="normal" in="SourceGraphic" in2="effect1_dropShadow_35_294" result="shape"/>
</filter>
<linearGradient id="paint0_linear_35_294" x1="246" y1="568" x2="246" y2="0" gradientUnits="userSpaceOnUse">
<stop stop-color="#10A9FF"/>
<stop offset="1" stop-color="#18A2F0"/>
</linearGradient>
<linearGradient id="paint1_linear_35_294" x1="504.474" y1="201.299" x2="525.072" y2="347.859" gradientUnits="userSpaceOnUse">
<stop stop-color="#FFE588"/>
<stop offset="0.71" stop-color="#F2DA81"/>
<stop offset="1" stop-color="#E6CE7A"/>
</linearGradient>
</defs>
</svg>